<?xml version="1.0" encoding="UTF-8"?>
<svg width="119px" height="101px" viewBox="0 0 119 101" version="1.1" xmlns="http://www.w3.org/2000/svg" xmlns:xlink="http://www.w3.org/1999/xlink">
    <title>Group 80</title>
    <g id="Page-1" stroke="none" stroke-width="1" fill="none" fill-rule="evenodd">
        <g id="Group-80" transform="translate(2.6306, 2.4176)">
            <g id="Group-36" transform="translate(0, 0)" stroke="#2B221D">
                <path d="M22.3516955,48.7857035 L6.67480823,48.7857035 L3.26458905,48.7857035 L0.802371438,47.0122771 C0.267457146,44.9749546 0,43.9562933 0,43.9562933 C0,43.9562933 0,30.4505509 0,3.43906596 L1.15651415,1.85084602 L2.23239827,0.894052739 C3.3832225,0.404844328 3.95863461,0.160240122 3.95863461,0.160240122 C3.95863461,0.160240122 4.86402581,0.106826748 6.67480823,-2.27373675e-13 L11.0001955,-2.27373675e-13 L108.478965,0.894052739 L110.333495,1.23727113 L111.349468,2.13891053 L112.024862,3.23505882 L112.279586,4.30673691 L112.279586,5.73920439 L112.279586,20.1225946" id="Path-226" stroke-width="4"></path>
                <path d="M14.2379311,38.6862507 C14.2379311,38.6862507 14.3438475,31.1064266 14.5556801,15.9467785 L37.5748047,45.9467785" id="Path-227" stroke-width="4"></path>
                <line x1="32.3693584" y1="12.5823866" x2="32.6210122" y2="38.6862507" id="Path-228" stroke-width="4"></line>
                <polyline id="Path-229" stroke-width="4" points="56.139793 37.2834581 41.9590303 36.9899164 40.6616797 36.7678314 39.8884152 36.1803365 39.4447478 34.9540962 39.4447478 32.9308971 39.4447478 30.3135517 39.4447478 15.5631932 40.2271004 14.8429227 41.1806557 14.4201707 42.8574839 14.4201707 55.994087 14.5803097"></polyline>
                <line x1="39.4447478" y1="26.3445759" x2="55.9417157" y2="26.1714858" id="Path-230" stroke-width="4"></line>
                <line x1="61.7493698" y1="14.6655596" x2="80.0244389" y2="38.6862507" id="Path-231" stroke-width="4"></line>
                <line x1="81.3492085" y1="12.4245154" x2="63.115366" y2="37.2834581" id="Path-232" stroke-width="4"></line>
                <line x1="103.822898" y1="15.9467785" x2="79.4446695" y2="15.9467785" id="Path-233" stroke-width="4"></line>
                <line x1="91.6337839" y1="15.9467785" x2="92.2538059" y2="38.6862507" id="Path-234" stroke-width="4"></line>
                <path d="M109.849641,33.3342881 C109.849641,33.3342881 111.455267,33.4986923 111.455267,33.4986923 C111.455267,33.4986923 111.86663,33.8552542 112.689357,34.5683779 L112.960541,36.3554209 C112.851932,37.3032211 112.797627,37.7771212 112.797627,37.7771212 C112.797627,37.7771212 111.924176,38.7621351 111.924176,38.7621351 C111.924176,38.7621351 111.489711,38.8451343 110.620781,39.0111326 L108.546246,38.5518671 L107.492867,37.0487095 C107.362828,36.040646 107.297809,35.5366143 107.297809,35.5366143 C107.297809,35.5366143 107.657742,34.2411376 107.657742,34.2411376 C107.657742,34.2411376 108.326492,33.3342881 108.326492,33.3342881 C108.326492,33.3342881 109.849641,33.3342881 109.849641,33.3342881 Z" id="Path-235" fill="#2B221D"></path>
                <path d="M102.915187,36.1727104 L102.801871,36.1852212 L101.758791,36.3003843 C101.310136,36.8939223 101.085808,37.1906914 101.085808,37.1906914 C101.085808,37.1906914 101.085808,38.3480278 101.085808,38.3480278 C101.085808,38.3480278 101.455933,39.0111326 101.455933,39.0111326 C101.455933,39.0111326 102.274975,39.3886272 102.274975,39.3886272 C102.274975,39.3886272 103.082884,39.5618905 103.082884,39.5618905 C103.082884,39.5618905 103.966762,38.7448088 103.966762,38.7448088 C103.966762,38.7448088 104.318542,37.6329441 104.318542,37.6329441 C104.318542,37.6329441 104.197022,36.4715308 104.197022,36.4715308 C104.197022,36.4715308 103.595463,36.1727104 103.595463,36.1727104 C103.595463,36.1727104 103.390831,36.1727104 102.981566,36.1727104 L102.915187,36.1727104 Z" id="Path-236" fill="#2B221D"></path>
            </g>
            <text id="next.js" font-family="BobbyJonesSoft-Regular, Bobby Jones Soft" font-size="36" font-weight="normal" letter-spacing="0.434117643" fill="#301C0B">
                <tspan x="0.369358395" y="87.5823866">next.js</tspan>
            </text>
        </g>
    </g>
</svg>