<?xml version="1.0" encoding="UTF-8"?>
<svg width="176px" height="140px" viewBox="0 0 176 140" version="1.1" xmlns="http://www.w3.org/2000/svg" xmlns:xlink="http://www.w3.org/1999/xlink">
    <title>Group 89</title>
    <g id="Page-1" stroke="none" stroke-width="1" fill="none" fill-rule="evenodd">
        <g id="Group-89">
            <g id="Group-70" transform="translate(22, 11)">
                <g id="Group-35" transform="translate(17.9659, -0)" stroke="#2B221D">
                    <path d="M17.8948553,49.6198622 C17.8948553,49.6198622 20.0184852,44.8902013 24.265745,35.4308796 L32.3939236,22.1664195 L43.8273623,10.6105031 C48.6393577,6.3233732 51.0453554,4.17980826 51.0453554,4.17980826 C51.0453554,4.17980826 53.1602466,3.27672281 57.3900291,1.47055191 L62.7815065,0.804092867 L66.0314672,2.74448406 L68.2016577,6.88251062 L69.0823504,13.8485846 L67.4340215,26.501885 L61.4309746,41.5109358 L54.8503572,51.6114564 L43.8273623,62.851962 L36.297645,67.2046317 L30.6866088,69.2416943 L24.265745,69.2416943 L17.8948553,66.5484133 L16.4800123,58.4956055 C17.423241,52.5784433 17.8948553,49.6198622 17.8948553,49.6198622 Z" id="Path-199" stroke-width="3"></path>
                    <path d="M20.7921293,2.392207 L18.9738062,9.08096524 L18.9738062,17.7211745 L20.7921293,28.9411988 L26.304446,40.6646516 L34.8434781,54.2477996 L41.9029465,61.3470016 L52.9742771,69.2416943 L61.9892928,70.1137849 L66.5320283,69.2416943 L70.2354433,65.3932723 L71.6539729,59.2730728 L70.2354433,49.1942623 L60.4790073,29.6580417 L48.0407598,13.0412148 C42.5083715,7.84171463 39.7421773,5.24196455 39.7421773,5.24196455 C39.7421773,5.24196455 33.4401046,1.60572799 33.4401046,1.60572799 C33.4401046,1.60572799 31.2798816,1.07048532 26.9594356,0 L23.4100394,0 L20.7921293,2.392207 Z" id="Path-200" stroke-width="3"></path>
                    <path d="M10.5728176,24.1428576 L18.9738062,21.7944804 L31.0765713,20.5746187 L43.6270559,20.5746187 L60.0312877,20.5746187 L67.9054992,21.7944804 L78.039609,25.336913 L86.5659427,31.8597733 L86.5659427,36.5098305 C86.5659427,38.5082518 86.5659427,39.5074625 86.5659427,39.5074625 C86.5659427,39.5074625 85.2758987,40.841746 82.6958106,43.510313 L71.6539729,48.5622117 L56.5355524,51.1174493 L31.0765713,50.5325055 L23.5333364,49.9119244 L15.7037739,47.7773712 L8.04871153,44.5241336 L1.47055191,38.5776149 L0,33.5515224 L2.51509435,28.8539488 L10.5728176,24.1428576 Z" id="Path-219" stroke-width="3"></path>
                    <polygon id="Path-220" stroke-width="3" points="41.9195766 29.8112961 38.9925915 31.2076706 37.2335409 34.7496006 37.9364939 39.4824999 41.9195766 42.8010735 46.3809851 42.8010735 50.0290332 40.2909355 51.514369 36.823034 50.9613793 32.726208 47.7595673 29.8112961 43.8941994 29.1847545"></polygon>
                    <path d="M81.1649902,10.2555851 C81.1649902,10.2555851 85.2701903,9.1327007 85.2701903,9.1327007 C85.2701903,9.1327007 86.257597,8.21009755 88.2324103,6.36489126 L90.2435768,1.1629991 L91.892792,6.85509474 L94.3056499,9.46191152 L97.2954169,10.2555851 L93.3629509,12.3419417 L91.2750137,14.8040231 L89.8823029,19.7272828 C89.44757,16.7074848 89.2302036,15.1975858 89.2302036,15.1975858 C89.2302036,15.1975858 88.6586382,14.353635 87.5155075,12.6657334 C86.4220519,11.8787585 85.8753241,11.485271 85.8753241,11.485271 C85.8753241,11.485271 81.1649902,10.2555851 81.1649902,10.2555851 Z" id="Path-225"></path>
                </g>
                <text id="react.js" font-family="BobbyJonesSoft-Regular, Bobby Jones Soft" font-size="36" font-weight="normal" letter-spacing="0.434117643" fill="#301C0B">
                    <tspan x="0" y="106.453235">react.js</tspan>
                </text>
            </g>
            <rect id="Rectangle" x="0" y="0" width="176" height="140"></rect>
        </g>
    </g>
</svg>