<?xml version="1.0" encoding="UTF-8"?>
<svg width="82px" height="114px" viewBox="0 0 82 114" version="1.1" xmlns="http://www.w3.org/2000/svg" xmlns:xlink="http://www.w3.org/1999/xlink">
    <title>Group 68</title>
    <g id="Page-1" stroke="none" stroke-width="1" fill="none" fill-rule="evenodd">
        <g id="Group-68" transform="translate(0, 4.6815)">
            <g id="Group-43" transform="translate(11.4157, -0)" stroke="#2B221D">
                <path d="M28.2565574,14.661267 C28.2565574,14.661267 28.6508171,12.72 29.4393364,8.83746596 L33.4715175,3.97393655 L39.1999894,0.909444006 L43.9948034,2.27373675e-13 L46.2936091,2.27373675e-13 L46.9469515,1.94562991 L46.2936091,4.95471377 L44.6878481,8.26614577 L41.941192,11.1072584 L38.5697703,13.8929624 L34.4197912,15.7055243 L30.3474715,15.7055243 L28.2565574,15.7055243 C28.2565574,15.0093528 28.2565574,14.661267 28.2565574,14.661267 Z" id="Path-264" stroke-width="4"></path>
                <path d="M15.9229105,2.27373675e-13 L15.3222733,2.3636405 L13.8162901,4.84616343 L11.8468361,6.2528315 L8.6456132,7.066931 L11.8468361,8.34141618 L13.6492223,10.2816807 L14.6166255,15.0378918 C15.0870574,12.9390236 15.3222733,11.8895895 15.3222733,11.8895895 C15.3222733,11.8895895 15.7824217,11.0889773 16.7027184,9.48775276 L18.4525399,8.34141618 C21.0521368,7.4917594 22.3519353,7.066931 22.3519353,7.066931 C22.3519353,7.066931 21.2299232,6.97762251 18.9858991,6.79900553 L17.1569339,5.1197844 C16.7273988,3.66885761 16.5126313,2.94339421 16.5126313,2.94339421 C16.5126313,2.94339421 16.3160577,1.96226281 15.9229105,2.27373675e-13 Z" id="Path-265" stroke-width="2"></path>
                <path d="M58.6751628,24.8132734 L55.2814518,21.2601101 C49.4620653,18.5753704 46.5523721,17.2330006 46.5523721,17.2330006 C46.5523721,17.2330006 39.0499508,17.932562 39.0499508,17.932562 C39.0499508,17.932562 37.689864,18.3102046 34.9696904,19.0654898 L29.0646598,21.2601101 L23.9778426,20.1102005 L17.3110576,19.0654898 C13.3837803,19.3718971 11.4201417,19.5251008 11.4201417,19.5251008 C11.4201417,19.5251008 9.79246312,20.246937 6.53710595,21.6906095 L2.41053163,26.7635325 L0.570764488,32.8710212 L0,38.2807129 L2.41053163,45.9233994 L7.4863217,52.1923254 L10.4241709,56.3032412 L14.9205953,59.3828994 C17.1842455,59.8261902 18.3160706,60.0478356 18.3160706,60.0478356 C18.3160706,60.0478356 23.3259184,60.6977749 23.3259184,60.6977749 C23.3259184,60.6977749 29.0646598,59.7483386 29.0646598,59.7483386 C29.0646598,59.7483386 30.129587,59.4629564 32.2594413,58.8921919 L37.0749909,58.8921919 L41.2218552,60.0478356 C43.8417553,60.4811285 45.1517054,60.6977749 45.1517054,60.6977749 C45.1517054,60.6977749 49.0138491,60.0478356 49.0138491,60.0478356 C49.0138491,60.0478356 50.3654817,59.2108026 53.068747,57.5367365 C55.7692188,53.9737958 57.1194546,52.1923254 57.1194546,52.1923254 C57.1194546,52.1923254 58.0230916,50.1026834 59.8303654,45.9233994 L59.8303654,41.8572538 L55.2814518,40.3335243 L50.8346495,38.9653877 L47.9128999,35.7967406 L46.5523721,32.8710212 L46.5523721,28.6449822 C48.4608015,26.4482299 49.4150162,25.3498538 49.4150162,25.3498538 C49.4150162,25.3498538 50.390403,24.9114884 52.3411767,24.0347577 C54.3013601,23.7876029 55.2814518,23.6640255 55.2814518,23.6640255 C55.2814518,23.6640255 56.4126888,24.0471081 58.6751628,24.8132734 Z" id="Path-266" stroke-width="4"></path>
                <path d="M14.7518638,49.7327776 C14.7518638,49.7327776 14.8288656,49.7660152 14.9828694,49.8324904 C15.3407916,49.9869864 16.8135084,50.6226799 19.4010197,51.7395709 C24.138068,51.9961356 26.5065922,52.124418 26.5065922,52.124418 C26.5065922,52.124418 29.1442129,51.4996025 34.4194545,50.2499714 L41.2194355,48.3927985 L45.0928007,47.9396188 L40.0118032,40.0069427 L31.5751424,31.6558882 C24.7718591,28.2761772 21.3702174,26.5863218 21.3702174,26.5863218 C21.3702174,26.5863218 21.2097586,26.5863218 20.888841,26.5863218 L22.3519353,30.283902 L27.6875519,36.5730398 L33.1338366,40.8299819 L33.1338366,41.5630966 C29.5029802,40.8250708 27.6875519,40.4560579 27.6875519,40.4560579 C27.6875519,40.4560579 26.237919,40.4560579 23.338653,40.4560579 L18.8317508,38.9653877 L13.0590447,36.5730398 L13.0590447,38.3125994 L14.2857289,40.4560579 C15.5956484,41.6277881 16.2506082,42.2136532 16.2506082,42.2136532 C16.2506082,42.2136532 17.110989,42.6244108 18.8317508,43.4459259 L27.1238716,47.9396188 C18.8758664,49.135058 14.7518638,49.7327776 14.7518638,49.7327776 Z" id="Path-267" stroke-width="4" fill="#2B221D"></path>
            </g>
            <text id="swift" font-family="BobbyJonesSoft-Regular, Bobby Jones Soft" font-size="36" font-weight="normal" letter-spacing="0.434117643" fill="#301C0B">
                <tspan x="0" y="98.3184988">swift</tspan>
            </text>
        </g>
    </g>
</svg>